<svg preserveAspectRatio="none" width="100%" height="100%" overflow="visible" style="display: block;" viewBox="0 0 104.941 167.976" fill="none" xmlns="http://www.w3.org/2000/svg">
<g id="Group">
<path id="Vector" d="M61.6685 109.457C63.7633 107.66 65.4218 105.907 66.6437 104.197C67.8657 102.444 68.4767 100.997 68.4767 99.8575C68.4767 98.9806 68.1933 98.2573 67.6258 97.6875C67.0586 97.0739 66.3165 96.767 65.4002 96.767C63.7852 96.767 62.2795 97.5779 60.8829 99.1998C59.5298 100.822 58.8535 102.575 58.8535 104.46C58.8535 105.468 59.0718 106.389 59.5083 107.222C59.9882 108.011 60.7084 108.756 61.6685 109.457ZM23.0439 123.857C30.0705 123.199 36.6608 121.775 42.8146 119.583C49.0118 117.391 54.5765 114.498 59.5083 110.904C58.417 110.071 57.6315 109.194 57.1512 108.274C56.6713 107.353 56.4314 106.257 56.4314 104.986C56.4314 102.268 57.435 99.8355 59.4426 97.6875C61.4939 95.5398 63.698 94.4656 66.0547 94.4656C67.5823 94.4656 68.8043 94.9479 69.7206 95.9121C70.6808 96.8329 71.161 98.0601 71.161 99.5945C71.161 101.129 70.55 102.816 69.328 104.657C68.1495 106.455 66.3603 108.449 63.9598 110.641C64.5708 110.86 65.2037 111.035 65.8582 111.167C66.513 111.254 67.2547 111.298 68.0841 111.298C71.4448 111.298 74.9797 110.553 78.6894 109.063C82.443 107.572 85.9344 105.49 89.164 102.816C93.2664 99.5287 96.5398 95.8683 98.9838 91.8357C101.428 87.7589 102.65 84.0548 102.65 80.7237C102.65 77.5674 101.668 75.1129 99.7039 73.3593C97.7399 71.5622 94.9686 70.6635 91.3899 70.6635C83.2721 70.6635 72.7975 75.551 59.9663 85.3262C47.135 95.0575 34.8278 107.901 23.0439 123.857ZM13.8132 125.435C9.31791 124.427 5.89188 122.345 3.53515 119.189C1.17838 115.988 0 111.89 0 106.893C0 98.3452 3.66608 90.5426 10.9982 83.485C18.3303 76.4277 27.2118 72.2854 37.6425 71.0582C27.6046 76.055 19.4214 82.2357 13.0931 89.6001C6.76477 96.9642 3.6006 103.759 3.6006 109.983C3.6006 113.622 4.60441 116.646 6.612 119.057C8.61963 121.424 11.3692 122.827 14.8607 123.265C18.614 117.479 22.6947 112.087 27.1027 107.09C31.5107 102.049 36.3332 97.3148 41.5707 92.8878C50.6048 85.2166 59.4864 79.2769 68.2149 75.0688C76.9875 70.8607 84.7124 68.7568 91.3899 68.7568C95.5358 68.7568 98.8311 69.8089 101.275 71.9128C103.719 73.9729 104.941 76.7345 104.941 80.1976C104.941 83.9235 103.872 87.781 101.733 91.7699C99.5947 95.7587 96.5617 99.4849 92.6335 102.948C88.924 106.235 84.8213 108.822 80.3263 110.707C75.8744 112.547 71.6193 113.468 67.5604 113.468C66.5565 113.468 65.5528 113.38 64.5489 113.205C63.5453 112.986 62.5851 112.679 61.6685 112.284C55.3401 116.493 48.7718 119.78 41.9633 122.147C35.155 124.471 28.3029 125.807 21.4072 126.158C18.2212 131.199 15.8208 135.846 14.206 140.097C12.5912 144.306 11.7838 147.988 11.7838 151.144C11.7838 155.659 13.1804 159.231 15.9736 161.862C18.7668 164.448 22.5638 165.741 27.3646 165.741C32.2527 165.741 37.3372 164.47 42.6181 161.927C47.899 159.385 52.9834 155.746 57.8714 151.012C61.4066 147.637 64.1125 144.284 65.9893 140.952C67.9095 137.621 68.8697 134.618 68.8697 131.944C68.8697 129.797 68.346 128.153 67.2986 127.013C66.2511 125.873 64.7235 125.303 62.7159 125.303C57.7841 125.303 52.2633 128.416 46.1533 134.64C40.043 140.821 34.9805 148.711 30.9652 158.311V156.667C30.9652 147.769 34.1292 139.944 40.4575 133.194C46.7859 126.399 53.9436 123.002 61.9303 123.002C64.7673 123.002 67.0148 123.769 68.6732 125.303C70.3316 126.837 71.161 128.898 71.161 131.484C71.161 134.596 70.1571 137.971 68.1495 141.61C66.1419 145.248 63.2615 148.886 59.5083 152.525C54.3146 157.522 48.9683 161.357 43.469 164.031C37.9701 166.661 32.6453 167.976 27.4955 167.976C21.0362 167.976 16.039 166.157 12.5039 162.519C8.96877 158.881 7.2012 153.708 7.2012 147.002C7.2012 143.495 7.74674 139.966 8.83784 136.415C9.92894 132.821 11.5874 129.161 13.8132 125.435Z" fill="var(--fill-0, white)"/>
<path id="Vector_2" d="M23.4759 22.0658C30.3939 24.2364 46.7025 30.4874 46.7025 41.1892C46.7025 51.8909 30.3939 58.142 23.4759 60.3127C23.2122 60.3954 23.0597 60.0192 23.3076 59.8933C27.5115 57.7628 35.2079 52.9508 37.179 45.1113C34.9698 44.4558 31.8369 43.7296 29.4762 43.7296C25.8973 43.7296 15.563 47.9086 11.8504 48.8828C11.6257 48.9415 11.4949 48.6373 11.6907 48.5125L23.0113 41.1892L11.6907 33.866C11.4949 33.7411 11.6257 33.4366 11.8504 33.4956C15.563 34.4695 25.8973 38.6488 29.4762 38.6488C31.8369 38.6488 34.9698 37.9223 37.179 37.2672C35.2079 29.4275 27.5115 24.6156 23.3076 22.485C23.0597 22.3593 23.2122 21.983 23.4759 22.0658Z" fill="var(--fill-0, white)"/>
<path id="Vector_3" d="M81.5447 60.3127C74.627 58.142 58.3182 51.8909 58.3182 41.1892C58.3182 30.4874 74.627 24.2364 81.5447 22.0658C81.8085 21.983 81.9609 22.3593 81.7132 22.485C77.5093 24.6156 69.8131 29.4275 67.8419 37.2672C70.0508 37.9223 73.184 38.6488 75.5446 38.6488C79.1236 38.6488 89.4578 34.4695 93.1704 33.4956C93.3949 33.4366 93.526 33.7411 93.3302 33.866L82.0095 41.1892L93.3302 48.5125C93.526 48.6373 93.3949 48.9415 93.1704 48.8828C89.4578 47.9086 79.1236 43.7296 75.5446 43.7296C73.184 43.7296 70.0508 44.4558 67.8419 45.1113C69.8131 52.9508 77.5093 57.7628 81.7132 59.8933C81.9609 60.0192 81.8085 60.3954 81.5447 60.3127Z" fill="var(--fill-0, white)"/>
<path id="Vector_4" d="M52.5103 45.1022C54.6509 45.1022 56.386 43.3551 56.386 41.1996C56.386 39.0445 54.6509 37.2973 52.5103 37.2973C50.37 37.2973 48.635 39.0445 48.635 41.1996C48.635 43.3551 50.37 45.1022 52.5103 45.1022Z" fill="var(--fill-0, white)"/>
<path id="Vector_5" d="M71.4915 11.9634C69.3357 18.9295 63.1279 35.3514 52.5 35.3514C41.8721 35.3514 35.6642 18.9295 33.5085 11.9634C33.4264 11.6978 33.8 11.5443 33.925 11.7939C36.0408 16.027 40.8195 23.7767 48.605 25.7616C49.2556 23.5373 49.9771 20.3825 49.9771 18.0054C49.9771 14.4016 45.827 3.99549 44.8595 0.25708C44.8009 0.0307962 45.1033 -0.100901 45.2273 0.0962787L52.5 11.4956L59.7727 0.0962797C59.8967 -0.1009 60.1991 0.0307975 60.1405 0.257081C59.173 3.99549 55.0229 14.4016 55.0229 18.0054C55.0229 20.3825 55.7444 23.5373 56.395 25.7616C64.1804 23.7767 68.9592 16.027 71.075 11.7939C71.2 11.5443 71.5736 11.6978 71.4915 11.9634Z" fill="var(--fill-0, white)"/>
</g>
</svg>
